<svg width="25" height="25" viewBox="0 0 25 25" fill="none" xmlns="http://www.w3.org/2000/svg">
<path d="M21.0896 0.100342H2.67065L2.53979 0.111084C2.28135 0.155825 2.04897 0.332238 1.93628 0.569092L1.89038 0.692139V0.693115L0.125732 7.40991L0.124756 7.41089C0.108011 7.47647 0.10021 7.54437 0.100342 7.61206V23.4939C0.100384 23.9187 0.481197 24.2995 0.906006 24.2996H23.4939C23.9187 24.2995 24.2995 23.9187 24.2996 23.4939V15.0232C24.2994 14.5985 23.9186 14.2176 23.4939 14.2175H14.0642V12.5525C14.0673 12.1641 13.7564 11.8024 13.3718 11.7478H13.3699C13.1827 11.7247 12.9888 11.7698 12.8308 11.8728L8.948 14.3435C8.71328 14.4929 8.60237 14.7634 8.60229 15.0232C8.60229 15.2831 8.7132 15.5544 8.948 15.7039L12.8298 18.1736L12.8308 18.1746C13.0814 18.3315 13.391 18.2988 13.6306 18.1667C13.8702 18.0347 14.0629 17.7905 14.0642 17.4949V15.8289H22.6882V22.6882H1.71167V8.41772H22.6882V11.4929L22.6912 11.572C22.7296 11.9681 23.0918 12.3102 23.4939 12.3103C23.9225 12.3103 24.3054 11.9215 24.2996 11.4929V7.61108C24.2991 7.51695 24.2825 7.42299 24.2498 7.33472L21.7791 0.61792V0.616943C21.6721 0.335667 21.398 0.127752 21.0984 0.100342L21.0896 0.0993652V0.100342ZM12.4529 16.032L10.8757 15.0232L12.4529 14.0144V16.032ZM11.7468 6.80542H1.95093L3.28784 1.71167H11.7468V6.80542ZM22.3357 6.80542H13.3591V1.71167H20.4578L22.3357 6.80542Z" fill="#9F9F9F" stroke="#9F9F9F" stroke-width="0.2"/>
</svg>
